<svg id="Layer_1" data-name="Layer 1" xmlns="http://www.w3.org/2000/svg" viewBox="0 0 627.2 108.94"><title>button</title><path d="M951,501.35h296.09l.71.67L1260,513.7l.71.68v79.15l-.71.67-12.21,11.68-.71.67H951V602h294.1l10.81-10.33V516.28L1245.12,506H951Zm-295.08,0H951V506H656.93l-10.8,10.33v75.34L656.93,602H951v4.6H654.94l-.7-.67L642,594.2l-.7-.67V514.38l.7-.68L654.24,502l.7-.67Z" transform="translate(-637.83 -501.35)" style="fill:#c1c1c1;fill-rule:evenodd"/><polygon points="18.1 2.3 608.29 2.3 620.5 13.98 620.5 91.23 608.29 102.91 18.1 102.91 5.89 91.23 5.89 13.98 18.1 2.3" style="fill:#232323;fill-rule:evenodd"/><polygon points="26.48 12.97 599.91 12.97 609.34 21.98 609.34 83.23 599.91 92.24 26.48 92.24 17.05 83.23 17.05 21.98 26.48 12.97" style="fill:#1c1c1c;fill-rule:evenodd"/><path d="M1247.17,577.94c-26.15,4.85-568.14,4.39-592.29-.88v7.51l9.43,9h573.44l9.42-9Z" transform="translate(-637.83 -501.35)" style="fill:#424242;fill-rule:evenodd;opacity:0.47000000000000003"/><path d="M951,510.62h289.63l10.39,9.94v66.79l-10.39,9.93H951v-3.69h278.92l17.23-15.65V528.38L1232,514.32H951Zm-289.61,0H951v3.7H668.44L654.88,528.2v51.43l15.32,14H951v3.69H661.41L651,587.35V520.56Z" transform="translate(-637.83 -501.35)" style="fill:#424242;fill-rule:evenodd"/><path d="M706.81,608.57l-15.07-19.06-5,6.79H670.08l-18.26-19.38V561.36l6.79-5-19.06-15.07q-.06,27.48-.12,54.93l6.23,6.22,6.22,6.23Z" transform="translate(-637.83 -501.35)" style="fill:#424242;stroke:#c1c1c1;stroke-miterlimit:22.925600000000003;stroke-width:3.1889741349220277px;fill-rule:evenodd"/><path d="M706.81,608.57l-15.07-19.06-5,6.79H670.08l-18.26-19.38V561.36l6.79-5-19.06-15.07q-.06,27.48-.12,54.93l6.23,6.22,6.22,6.23Z" transform="translate(-637.83 -501.35)" style="fill:#232323;fill-rule:evenodd"/><polygon points="12.68 97.13 17.2 101.65 17.59 102.04 18.91 103.36 65.84 103.25 65.95 103.39 67.33 105.14 68.97 107.22 14.05 107.34 7.83 101.12 1.6 94.89 1.72 39.97 4.58 42.23 6.33 43.61 6.56 43.79 6.45 90.91 7.38 91.83 8.07 92.52 12.68 97.13" style="fill:#232323;fill-rule:evenodd"/><path d="M649.32,581.47V563.19l2.5-1.83v15.56l18.26,19.38h16.68l2.48-3.38,2.5-3.41q7.53,9.54,15.07,19.06l-11.93-4-1-1.23-.32-.4-1.05-1.33-1.75-2.21-2.22-2.8-.45-.74-3.26,3.61H666.64Z" transform="translate(-637.83 -501.35)" style="fill:#424242;fill-rule:evenodd"/><path d="M649.45,558.27l-2.22-1.75-1.33-1-.7-.55-.83-.66-4.82-13,19.06,15.07-6,4.4Z" transform="translate(-637.83 -501.35)" style="fill:#424242;fill-rule:evenodd"/><path d="M647.51,600.64a8,8,0,1,0,0-11.35A8,8,0,0,0,647.51,600.64Z" transform="translate(-637.83 -501.35)" style="fill:#fff;stroke:#000;stroke-miterlimit:22.925600000000003;stroke-width:3.0363051369667056px;fill-rule:evenodd"/><path d="M647.51,600.64a8,8,0,1,0,0-11.35A8,8,0,0,0,647.51,600.64Z" transform="translate(-637.83 -501.35)" style="fill:#424242;fill-rule:evenodd"/><path d="M1196.06,608.57l15.07-19.06,5,6.79h16.68l18.26-19.38V561.36l-6.79-5,19-15.07q.07,27.48.13,54.93l-6.23,6.22-6.23,6.23Z" transform="translate(-637.83 -501.35)" style="fill:#fff;stroke:#c1c1c1;stroke-miterlimit:22.925600000000003;stroke-width:3.1889741349220277px;fill-rule:evenodd"/><path d="M1196.06,608.57l15.07-19.06,5,6.79h16.68l18.26-19.38V561.36l-6.79-5,19-15.07q.07,27.48.13,54.93l-6.23,6.22-6.23,6.23Z" transform="translate(-637.83 -501.35)" style="fill:#232323;fill-rule:evenodd"/><path d="M1253.55,581.47V563.19l-2.5-1.83v15.56l-18.26,19.38h-16.68l-2.48-3.38-2.5-3.41q-7.55,9.54-15.07,19.06l11.93-4,1-1.23.31-.4,1-1.33,1.76-2.21,2.21-2.8.46-.74,3.26,3.61h18.21Z" transform="translate(-637.83 -501.35)" style="fill:#424242;fill-rule:evenodd"/><path d="M1253.42,558.27l2.21-1.75,1.33-1,.7-.55.83-.66,4.82-13-19,15.07,6,4.4Z" transform="translate(-637.83 -501.35)" style="fill:#424242;fill-rule:evenodd"/><path d="M1255.36,600.64a8,8,0,1,1,0-11.35A8,8,0,0,1,1255.36,600.64Z" transform="translate(-637.83 -501.35)" style="fill:#fff;stroke:#000;stroke-miterlimit:22.925600000000003;stroke-width:3.0363051369667056px;fill-rule:evenodd"/><path d="M1255.36,600.64a8,8,0,1,1,0-11.35A8,8,0,0,1,1255.36,600.64Z" transform="translate(-637.83 -501.35)" style="fill:#424242;fill-rule:evenodd"/></svg>