<?xml version="1.0" standalone="no"?>
<!DOCTYPE svg PUBLIC "-//W3C//DTD SVG 20010904//EN"
 "http://www.w3.org/TR/2001/REC-SVG-20010904/DTD/svg10.dtd">
<svg version="1.0" xmlns="http://www.w3.org/2000/svg"
 width="364.000000pt" height="368.000000pt" viewBox="0 0 364.000000 368.000000"
 preserveAspectRatio="xMidYMid meet">

<g transform="translate(0.000000,368.000000) scale(0.100000,-0.100000)"
fill="#000000" stroke="none">
<path d="M475 3603 c-207 -37 -375 -194 -419 -392 -14 -66 -16 -206 -16 -1380
1 -1234 2 -1310 19 -1381 46 -189 195 -337 378 -375 102 -22 2675 -22 2777 0
134 28 270 137 337 267 l29 57 0 1437 0 1436 -37 66 c-83 149 -213 239 -387
267 -138 22 -2557 21 -2681 -2z m985 -848 c10 -13 10 -19 -5 -35 -10 -11 -22
-20 -27 -20 -18 0 -173 -64 -188 -77 -24 -21 51 -16 162 11 227 57 674 56 875
-1 29 -8 63 -13 75 -11 18 3 6 12 -52 41 -41 20 -79 37 -85 37 -6 0 -21 7 -33
16 -18 13 -20 19 -11 36 37 68 463 -72 625 -205 41 -34 93 -138 167 -337 38
-100 87 -258 87 -278 0 -11 8 -43 19 -74 10 -30 24 -94 30 -143 7 -49 18 -117
26 -150 7 -33 16 -121 20 -196 8 -160 6 -166 -84 -258 -105 -107 -238 -177
-411 -217 -105 -24 -164 -29 -194 -18 -26 10 -136 143 -136 165 0 15 17 27 68
50 84 38 181 103 159 107 -9 2 -24 -1 -34 -6 -43 -23 -216 -81 -308 -103 -93
-22 -119 -24 -375 -24 -302 0 -364 9 -542 76 -42 16 -82 29 -88 29 -6 0 -22 7
-35 16 -13 9 -32 14 -41 12 -22 -4 42 -49 141 -98 96 -49 96 -60 0 -156 l-75
-77 -68 6 c-233 19 -442 122 -575 282 l-50 59 6 136 c6 147 45 411 78 530 74
267 133 429 211 588 37 75 93 117 247 190 200 93 388 137 421 97z"/>
<path d="M1365 1900 c-81 -18 -145 -80 -170 -162 -19 -65 -19 -76 1 -135 24
-71 59 -112 121 -139 66 -29 106 -30 166 -4 169 75 182 324 23 414 -47 27 -97
36 -141 26z"/>
<path d="M2172 1900 c-47 -11 -108 -55 -138 -100 -34 -51 -44 -156 -21 -211
34 -82 125 -149 202 -149 37 0 96 22 139 53 37 26 86 130 86 183 0 41 -34 119
-68 158 -46 50 -135 80 -200 66z"/>
</g>
</svg>
