<svg id="logo" xmlns="http://www.w3.org/2000/svg" viewBox="0 0 1015.22 1014.88"><defs><style>.cls-1{stroke:#000;stroke-linejoin:round;stroke-width:5.55px;}.cls-2{fill:#fff;}.cls-3{fill:#c00000;}</style></defs><title>logo</title><path class="cls-1" d="M1343.83,524.33q-26.61-25.37-56.25-33.39c-.34-.1-.66-.18-1-.26a107.2,107.2,0,0,0-22.21-3.34c-.57,0-1.13,0-1.7,0-1.05-.05-2.09-.07-3.16-.07-.38,0-.76-.05-1.14-.05-.81,0-1.61-.08-2.44-.09h0c-.71,0-1.42,0-2.13,0a127.45,127.45,0,0,0-21,1.4c-.77.11-1.56.24-2.35.39-.25,0-.47.08-.71.13-.84.14-1.68.29-2.52.46a149.43,149.43,0,0,0-35.45,11.8q-67.9,31.95-67.88,121.65,0,64.15,48.38,99.2a143.67,143.67,0,0,0,55.6,24.68c.82.16,1.66.34,2.51.48.7.15,1.39.26,2.1.39l2.37.4a154,154,0,0,0,18.17,1.76l.85,0,2.69.07h1.15c.59,0,1.19,0,1.8,0,.45,0,.91,0,1.34,0,1.19,0,2.39,0,3.56-.1a117.05,117.05,0,0,0,19.24-2.3c.8-.16,1.59-.34,2.38-.52q29.91-6.72,56.51-29,44-37,44-94.18Q1386.55,565.25,1343.83,524.33ZM1231,732.71l-.68-.21q-1.27-.36-2.52-.78-27.32-8.79-44.92-29.42-26.17-30.81-26.17-83.79T1182.91,535q17.4-20.15,44.34-28.86c.83-.26,1.66-.52,2.52-.77l.81-.25c.14-.06.3-.09.45-.14Zm18.28,3.59c-2.74-.42-7.47-.93-10.45-1.53V503c2.82-.61,7.53-1.08,10.45-1.42Zm21.5-.13c-2.21.26-4.32.45-6.35.58-1.19.08-2.34.15-3.46.18l-.58,0V501.48l2.2.29,1.78.29q3.16.51,6.41,1.21Zm56.33-28.48a86.42,86.42,0,0,1-41,25.19c-.76.23-1.53.44-2.3.65-1.7.45-3.42.87-5.18,1.24V505.46c2.66.83,5.24,1.71,7.76,2.71l1.08.44a97.79,97.79,0,0,1,39.67,28.55q26.7,31.94,26.7,86.62Q1353.84,678.31,1327.14,707.69Z" transform="translate(-718.28 -21.67)"/><path d="M1106.55,400.59c-3.58-3.45-82.54-77-185.09-48.37-71.86,20.09-129.8,83.28-136.71,161.94C776.25,611,849.33,682.62,911,705.56c9.86,3.67,81.78,30.44,122-4.21a65.64,65.64,0,0,0,12.62-14.72l2.11-63.1-10.52,6.31-16.83-6.31s46.27-27.34,58.89-77.82l-18.93,21H1054s-18.92-12.62-27.34,0c0,0-90.44,10.52-147.22-14.72,0,0,155.64,14.72,225-50.48l-18.93,31.55,6.31,2.1,31.55-33.65s-50.48,63.1-46.27,101l-2.1,84.13,4.2,6.31v12.62h8.42l-2.11-75.72h6.31s-21-98.85,90.44-155.64c0,0-71.51,71.51-71.51,122l-4.2,37.86-2.11,42.06,8.41,44.17h6.31l4.21-12.62,4.21,29.44,8.41,14.73v6.31h12.62v50.47h-14.72V783.37l-27.34-33.65s-16.83-14.72-25.24-12.62c0,0-37.86-10.51-56.79-2.1-13.74,5-105.36,36.32-193.5-14.72C753.89,675.61,710.08,585.59,719.55,491c20.1-92,93.67-161.7,183-174.57C979.33,305.39,1057.24,337.86,1106.55,400.59Z" transform="translate(-718.28 -21.67)"/><path d="M1408.6,630.53s-18.37,41.32-18.37,73.45l1.15,47.06,4.59,4.59v11.48l-6.89,13.77,6.89,4.59v18.36l2.3,2.3V822.2H1396v39l4.59,4.59v4.59l2.3,2.3v18.36l2.29,2.3v11.47l2.3,4.59v25.25l6.88,13.78h4.59v-52.8s4.6-50.5,23-84.93l45.91-39h23V753.33s29.84-20.66,45.91-43.61h4.59v13.77s27.55-23,43.62-78l13.77-16.07h4.59l9.18-9.18,41.32-13.77H1699v-4.6l-64.27-20.65-6.89-4.6V569.7h-4.59l2.29-6.89-6.88,2.3V553.63h25.25l-34.43-32.14s4.59-36.72-110.18-107.88l-18.37-23-16.07-25.25-32.13-68.86v-62h4.59V179.47q-3.57,6.67-6.89,13.78C1408,241.38,1402,289.61,1402.86,331h4.59v18.37h2.29V367.7a33.57,33.57,0,0,1-2.92,8.45c-2,3.85-3.49,5-4.84,8.06a20.71,20.71,0,0,0-1.42,11h-2.29v78.05h.68v22.95l7.81,6.89V471h3V459.52s9.18-9.18,6.89-18.37l4.59-4.59c9.79,1,77.26,9,117.07,68.87,26.81,40.29,26.18,81.69,25.25,96.4-2.42,18.24-11.24,66.32-50.5,110.19a206.47,206.47,0,0,1-94.12,59.68v-6.89h-4.59V753.33H1412V737.27h-4.59Z" transform="translate(-718.28 -21.67)"/><path d="M1733.5,47.78a1.67,1.67,0,0,0-.48-.71,1.16,1.16,0,0,0-.78-.38,1.37,1.37,0,0,0,.46.72A1.12,1.12,0,0,0,1733.5,47.78Z" transform="translate(-718.28 -21.67)"/><path d="M1730.71,45.06a1.46,1.46,0,0,0-.47-.71,1.09,1.09,0,0,0-.79-.37,1.37,1.37,0,0,0,.47.7A1.08,1.08,0,0,0,1730.71,45.06Z" transform="translate(-718.28 -21.67)"/><path d="M1351.7,263.57s-77.56,3.48-76.81-19.45a25.33,25.33,0,0,1-13.43-7,24.38,24.38,0,0,1-5.42-8.32,24.48,24.48,0,0,1-5,8.45,25.24,25.24,0,0,1-13.42,7.74s1.36,20.86-77.57,19.92c0,0-14.83-3.44-14.86,6.7,0,0,5.32,20.93,15.43,24.34,0,0-9.38-17.58,11.54-20.88,0,0,33.35-6,58.5-3.32l3.37,668.78c.37,74.64,21,94.48,21.91,95.28l.77.71.72-.75c20.78-21.25,21.86-91.48,21.88-94.45l6-667c12.3-1.27,30-1.61,55.56,0,0,0,20.89,3.45,14.12,20.27.53-.28,8.85-5.24,11.52-22.87C1366.52,271.71,1375.32,263,1351.7,263.57Z" transform="translate(-718.28 -21.67)"/><path class="cls-2" d="M1276.11,275.6c-2.67,233.76-4.71,111.13-4.71,111.13l-.23-110C1272.66,276.32,1274.3,276,1276.11,275.6Z" transform="translate(-718.28 -21.67)"/><path class="cls-2" d="M1243.73,276.45c-2.67,233.76-4.71,109.44-4.71,109.44l-.22-110Z" transform="translate(-718.28 -21.67)"/><path class="cls-2" d="M1243.75,276.09c-2.66,233.75-4.73,111-4.73,111l-.24-111.78Z" transform="translate(-718.28 -21.67)"/><path d="M1275,211.35c-4-4.74-.64-10.8-.64-10.8a10.34,10.34,0,0,1-.64-12.81c-4.71-3.39-.64-10.12-.64-10.12-3.36-4.06,0-9.45,0-9.45-4-6.08.71-10.12.71-10.12-6.06-4.73-1.31-11.47-1.31-11.47-5.37-5.4,0-9.44,0-9.44-4.71-3.38-.63-11.46-.63-11.46-1.34-3.39,0-10.8,0-10.8-3.36-4.06-.64-10.11-.64-10.11l-31-.11c4,2.71-.7,6.73-.7,6.73,2.69,2.71-1.37,7.42-1.37,7.42,6.06,4.75,0,13.5,0,13.5,6.06,4.07.65,8.78.65,8.78,6.73,4.06.64,10.12.64,10.12,6.06,3.38-.71,12.14-.71,12.14,4.71,3.39,0,10.79,0,10.79,6,4.75-.71,11.47-.71,11.47,4.71,4.07,0,10.81,0,10.81,4.69,5.41-.05,10.79-.05,10.79,4.71,4.75-.71,10.79-.71,10.79,6,9.47-.71,12.14-.71,12.14,6.74,4.07,1.31,12.14,1.31,12.14,8.76,0,18.28-16.8,18.28-16.8,8.73,12.85,18.16,14.9,18.16,14.9-3.36-3.37,0-9.43,0-9.43-2.68-6.76.7-9.45.7-9.45C1270.23,215.38,1275,211.35,1275,211.35Z" transform="translate(-718.28 -21.67)"/><path d="M1283.58,61.62s8.13-9.42-3.31-17.56c0,0,10.16-15.48-7.34-22.29l-8.12,8.75-17.58,1.95-7.38-10.8S1227,34.44,1231.69,41.2c0,0-10.82,9.4-4.11,16.17,0,0-8.13,15.49-1.4,20.24,0,0,15.51,4.77,13.42,24.33l32.38.11s-5.32-23,13.57-24.24C1285.55,77.81,1289.61,75.8,1283.58,61.62ZM1270.8,37.54c4.22-3,1.9-11.75,1.87-11.84a.5.5,0,0,1,.35-.62.53.53,0,0,1,.63.35c.09.38,2.33,8.73-1.68,12.46l6.45,4a.52.52,0,0,1,.17.71.49.49,0,0,1-.43.23.53.53,0,0,1-.26-.07l-7.08-4.33a.45.45,0,0,1-.24-.4A.55.55,0,0,1,1270.8,37.54Zm-12.74,35.92c1.08,0,1.91.56,1.9,1.28s-.82,1.25-1.91,1.25-1.9-.56-1.89-1.27S1257,73.46,1258.06,73.46Zm-2.27,1.13c0,.73-.82,1.26-1.91,1.26s-1.89-.56-1.89-1.27.82-1.27,1.91-1.26S1255.79,73.86,1255.79,74.59Zm-20-35.23,5.23-1.06c-1.55-2-5.52-7.77-2-12.65a.51.51,0,0,1,.7-.1.53.53,0,0,1,.11.72c-3.78,5.15,2.39,11.94,2.45,12a.54.54,0,0,1,.12.51.56.56,0,0,1-.38.34L1236,40.36h-.1a.49.49,0,0,1-.5-.39A.51.51,0,0,1,1235.82,39.36Zm3.29,16a22,22,0,0,0-4.52,1.75.38.38,0,0,1-.25.07.52.52,0,0,1-.45-.24.57.57,0,0,1,.2-.72c.4-.21,9.49-5.26,15.11-.18a6.54,6.54,0,0,0,2.18-4.27c.06-1.63-.79-3.24-2.51-4.78a.49.49,0,0,1,0-.71.48.48,0,0,1,.7,0c2,1.75,2.93,3.63,2.86,5.58a7.79,7.79,0,0,1-2.91,5.3.49.49,0,0,1-.67,0C1246.34,64.69,1239.21,55.54,1239.11,55.41Zm2,26.22a.53.53,0,0,1-.51-.48c-1.23-16.22,7.69-17.9,8.07-18a.5.5,0,1,1,.18,1c-.35.07-8.41,1.67-7.24,16.9a.48.48,0,0,1-.45.54Zm28.74,7.05a.52.52,0,0,1-.5.4h-.11c-3.33-.68-6-4.34-6.33-4.89-6.58-5.38-11.94-2-12.7-1.42a8.9,8.9,0,0,1-8.59,4.87.5.5,0,0,1-.43-.56.51.51,0,0,1,.56-.45,7.66,7.66,0,0,0,7.59-4.42.51.51,0,0,1,.15-.17,10.47,10.47,0,0,1,5.8-1.81l0-1.43-.68.11h-.13c-2.44-.24-3.94-1-4.45-2.29-.82-2.05,1.34-4.54,1.43-4.64a.5.5,0,0,1,.71,0,.48.48,0,0,1,0,.7c-.5.59-1.73,2.37-1.24,3.6.35.88,1.56,1.45,3.53,1.63l1-.17a.66.66,0,0,1,.26-.07l.09,0,2.61-.43h.14c.46,0,1.71,0,2.13-.63s0-2.13-1.25-4a.51.51,0,0,1,.14-.69.53.53,0,0,1,.71.13c1.53,2.32,1.94,4,1.25,5.1s-2.6,1.14-3,1.1l-2.29.38v1.62a12.84,12.84,0,0,1,7.31,3.19.21.21,0,0,1,.1.11s2.61,3.89,5.74,4.52A.51.51,0,0,1,1269.83,88.68Zm-.16-6.91a.52.52,0,0,1-.5.46s0,0-.06,0a.5.5,0,0,1-.43-.58c1.49-12.2-6.74-18.21-6.82-18.27a.5.5,0,0,1-.13-.7.51.51,0,0,1,.7-.11C1262.53,62.63,1271.25,69,1269.67,81.77Zm9-24.63a.51.51,0,0,1-.71.14,15.82,15.82,0,0,0-4.08-1.92s-8.34,9.27-10.85,2c-.39.3-.61.52-.63.53a.45.45,0,0,1-.34.15.41.41,0,0,1-.19,0,4.82,4.82,0,0,1-2.93-2.75c-1.29-3.1.56-7.19.64-7.38a.53.53,0,0,1,.69-.24.51.51,0,0,1,.25.67s-1.76,3.89-.65,6.58a3.9,3.9,0,0,0,2.07,2.06c1.36-1.14,7.95-6,16.57-.46A.53.53,0,0,1,1278.63,57.14Z" transform="translate(-718.28 -21.67)"/><path class="cls-3" d="M1252.4,51.87a7.79,7.79,0,0,1-2.91,5.3.49.49,0,0,1-.67,0c-2.48,7.56-9.61-1.59-9.71-1.72a22,22,0,0,0-4.52,1.75.38.38,0,0,1-.25.07.52.52,0,0,1-.45-.24.57.57,0,0,1,.2-.72c.4-.21,9.49-5.26,15.11-.18a6.54,6.54,0,0,0,2.18-4.27c.06-1.63-.79-3.24-2.51-4.78a.49.49,0,0,1,0-.71.48.48,0,0,1,.7,0C1251.51,48,1252.47,49.92,1252.4,51.87Z" transform="translate(-718.28 -21.67)"/><path class="cls-3" d="M1278.63,57.14a.51.51,0,0,1-.71.14,15.82,15.82,0,0,0-4.08-1.92s-8.34,9.27-10.85,2c-.39.3-.61.52-.63.53a.45.45,0,0,1-.34.15.41.41,0,0,1-.19,0,4.82,4.82,0,0,1-2.93-2.75c-1.29-3.1.56-7.19.64-7.38a.53.53,0,0,1,.69-.24.51.51,0,0,1,.25.67s-1.76,3.89-.65,6.58a3.9,3.9,0,0,0,2.07,2.06c1.36-1.14,7.95-6,16.57-.46A.53.53,0,0,1,1278.63,57.14Z" transform="translate(-718.28 -21.67)"/><polygon class="cls-2" points="535.39 254.53 541.84 254.53 540.23 862.29 538.62 860.68 535.39 254.53"/></svg>