<?xml version="1.0" standalone="no"?>
<!DOCTYPE svg PUBLIC "-//W3C//DTD SVG 20010904//EN"
 "http://www.w3.org/TR/2001/REC-SVG-20010904/DTD/svg10.dtd">
<svg version="1.0" xmlns="http://www.w3.org/2000/svg"
 width="462.000000pt" height="368.000000pt" viewBox="0 0 462.000000 368.000000"
 preserveAspectRatio="xMidYMid meet">

<g transform="translate(0.000000,368.000000) scale(0.100000,-0.100000)"
fill="#000000" stroke="none">
<path d="M716 3630 c-3 -8 -93 -755 -201 -1660 -117 -983 -201 -1662 -211
-1687 -8 -23 -28 -60 -45 -82 -33 -46 -147 -135 -196 -153 -18 -7 -33 -18 -33
-26 0 -12 11 -14 52 -8 29 3 261 6 516 6 388 0 462 2 462 14 0 8 -10 16 -23
20 -35 8 -139 78 -181 122 -60 62 -89 127 -93 214 -4 56 25 305 112 990 64
503 117 916 119 917 1 1 271 -494 600 -1100 329 -606 603 -1108 609 -1114 5
-7 15 -13 21 -13 7 0 277 488 601 1085 324 596 590 1083 592 1081 2 -2 101
-405 219 -897 205 -850 215 -898 211 -970 -6 -94 -36 -156 -108 -227 -29 -28
-83 -67 -121 -87 -37 -20 -68 -41 -68 -47 0 -8 40 -9 137 -5 75 4 309 7 520 7
210 0 383 4 383 9 0 4 -29 23 -65 40 -86 42 -177 128 -208 194 -20 42 -83 384
-313 1709 -159 912 -293 1658 -299 1658 -5 0 -338 -649 -740 -1441 -401 -793
-735 -1447 -740 -1455 -8 -12 -184 329 -744 1436 -404 797 -740 1458 -747
1468 -11 14 -13 15 -18 2z"/>
</g>
</svg>
