<?xml version="1.0" standalone="no"?>
<!DOCTYPE svg PUBLIC "-//W3C//DTD SVG 20010904//EN"
 "http://www.w3.org/TR/2001/REC-SVG-20010904/DTD/svg10.dtd">
<svg version="1.0" xmlns="http://www.w3.org/2000/svg"
 width="4213.000000pt" height="368.000000pt" viewBox="0 0 4213.000000 368.000000"
 preserveAspectRatio="xMidYMid meet">
<metadata>
Created by potrace 1.16, written by Peter Selinger 2001-2019
</metadata>
<g transform="translate(0.000000,368.000000) scale(0.100000,-0.100000)"
fill="#000000" stroke="none">
<path d="M20258 2855 c-430 -454 -785 -824 -788 -823 -4 2 -253 263 -555 581
l-548 578 -62 -63 c-177 -179 -1215 -1280 -1215 -1288 0 -7 1047 -1117 1219
-1293 l58 -58 548 578 c302 318 551 579 554 581 4 1 359 -369 789 -823 431
-454 788 -825 795 -824 7 0 363 371 792 825 429 453 783 823 787 821 3 -1 234
-243 513 -537 279 -294 526 -554 549 -578 l43 -44 642 676 641 676 -641 676
-642 676 -48 -49 c-26 -26 -273 -286 -549 -578 -276 -291 -505 -531 -508 -532
-4 -1 -358 368 -787 821 -429 454 -785 825 -792 825 -7 1 -364 -370 -795 -824z"/>
<path d="M834 3419 c-347 -333 -280 -712 166 -943 47 -24 155 -72 240 -106
273 -110 403 -186 510 -296 56 -58 54 -60 -15 -14 -266 180 -691 210 -1050 75
-38 -14 -167 -73 -286 -130 -227 -109 -318 -145 -369 -145 -18 0 -29 -4 -25
-10 3 -5 19 -10 34 -10 46 0 132 -34 360 -144 337 -163 519 -216 746 -216 233
0 439 58 610 172 l60 40 -60 -61 c-114 -117 -227 -183 -518 -302 -285 -117
-411 -194 -503 -307 -191 -234 -155 -496 100 -741 37 -35 68 -62 70 -60 2 2
18 47 36 99 91 273 319 538 684 793 124 87 166 122 207 177 76 101 110 213
113 367 l1 103 400 0 c306 0 12676 -58 12681 -60 1 0 147 -153 324 -340 177
-187 326 -340 330 -340 11 0 775 808 775 820 0 12 -764 820 -775 820 -4 0
-153 -153 -330 -340 -178 -187 -323 -340 -324 -340 -5 -2 -12395 -60 -12694
-60 l-392 0 6 53 c14 119 -27 303 -90 402 -47 72 -91 113 -231 210 -364 254
-594 521 -685 795 -18 52 -34 97 -36 99 -2 2 -33 -25 -70 -60z"/>
<path d="M41191 3380 c-88 -268 -322 -540 -685 -793 -124 -87 -166 -122 -207
-177 -79 -106 -111 -214 -113 -383 l-1 -119 -705 7 c-388 3 -3004 17 -5815 30
-2810 14 -5444 27 -5852 31 l-741 6 -322 339 c-176 187 -325 339 -329 339 -10
0 -776 -809 -776 -820 0 -11 766 -820 776 -820 4 0 153 152 329 339 l322 339
711 6 c392 3 3018 17 5837 31 2819 13 5449 27 5845 30 l720 7 1 -109 c3 -216
78 -378 220 -478 465 -326 687 -571 785 -865 17 -52 33 -97 35 -99 7 -8 138
127 180 185 152 212 148 422 -10 616 -92 113 -218 190 -503 307 -291 119 -404
185 -518 302 l-60 61 60 -40 c171 -114 377 -172 610 -172 230 0 396 47 726
205 253 122 303 143 372 154 48 7 50 8 22 15 -96 22 -162 49 -365 146 -346
167 -527 220 -755 220 -231 0 -440 -59 -610 -172 l-60 -40 60 61 c114 117 227
183 518 302 208 85 300 133 390 200 172 129 260 315 229 484 -23 123 -78 220
-191 338 -98 102 -93 103 -130 -13z"/>
</g>
</svg>
