<?xml version="1.0" standalone="no"?>
<!DOCTYPE svg PUBLIC "-//W3C//DTD SVG 20010904//EN"
 "http://www.w3.org/TR/2001/REC-SVG-20010904/DTD/svg10.dtd">
<svg version="1.0" xmlns="http://www.w3.org/2000/svg"
 width="436.000000pt" height="368.000000pt" viewBox="0 0 436.000000 368.000000"
 preserveAspectRatio="xMidYMid meet">

<g transform="translate(0.000000,368.000000) scale(0.100000,-0.100000)"
fill="#000000" stroke="none">
<path d="M4130 3666 c0 -8 -14 -18 -32 -21 -17 -4 -63 -20 -102 -36 -39 -15
-289 -112 -556 -214 -267 -103 -512 -197 -545 -210 -33 -13 -125 -48 -205 -79
-171 -66 -132 -51 -675 -262 -236 -91 -482 -186 -545 -209 -477 -180 -1293
-501 -1344 -529 -34 -19 -70 -44 -80 -55 -11 -12 -25 -21 -33 -21 -9 0 -13
-14 -13 -47 l1 -48 77 -37 c42 -20 208 -78 367 -129 160 -50 367 -116 460
-146 94 -31 188 -58 210 -60 37 -4 54 5 235 119 107 69 319 202 470 298 604
381 877 554 925 585 156 101 686 431 717 447 20 10 49 18 63 18 30 0 65 -32
65 -61 0 -25 -5 -30 -284 -279 -121 -107 -321 -287 -445 -400 -125 -113 -357
-322 -516 -465 -159 -143 -360 -324 -447 -403 -87 -78 -164 -152 -172 -165 -8
-13 -16 -66 -20 -137 -13 -226 -36 -567 -47 -684 -6 -66 -8 -130 -4 -143 7
-30 47 -31 93 -3 30 18 406 377 487 465 67 72 91 69 211 -24 92 -70 396 -296
669 -496 105 -76 207 -154 228 -172 20 -18 42 -33 47 -33 6 0 10 -7 10 -15 0
-12 14 -15 65 -15 50 0 65 3 65 15 0 7 6 18 13 22 21 14 75 89 92 129 9 21 29
100 45 174 16 74 43 200 60 280 17 80 42 197 55 260 13 63 37 178 54 255 16
77 50 239 75 360 25 121 55 261 66 310 23 107 100 466 170 800 64 306 72 343
120 557 21 97 42 200 46 228 4 32 11 50 20 50 8 0 14 5 14 10 0 6 -6 10 -14
10 -8 0 -16 16 -20 42 -10 60 -39 102 -91 129 -25 13 -45 30 -45 36 0 8 -13
13 -30 13 -19 0 -30 -5 -30 -14z"/>
</g>
</svg>
