<?xml version="1.0" standalone="no"?>
<!DOCTYPE svg PUBLIC "-//W3C//DTD SVG 20010904//EN"
 "http://www.w3.org/TR/2001/REC-SVG-20010904/DTD/svg10.dtd">
<svg version="1.0" xmlns="http://www.w3.org/2000/svg"
 width="436.000000pt" height="368.000000pt" viewBox="0 0 436.000000 368.000000"
 preserveAspectRatio="xMidYMid meet">
<metadata>
Created by potrace 1.16, written by Peter Selinger 2001-2019
</metadata>
<g transform="translate(0.000000,368.000000) scale(0.100000,-0.100000)"
fill="#000000" stroke="none">
<path d="M2720 3668 c0 -7 -10 -18 -23 -24 -176 -86 -224 -120 -343 -238 -136
-136 -224 -274 -244 -384 -6 -34 -18 -78 -27 -99 -14 -30 -17 -70 -18 -180 0
-138 -1 -143 -20 -143 -12 0 -26 5 -32 11 -5 5 -57 15 -114 20 -97 9 -159 23
-184 41 -6 4 -42 10 -80 14 -39 4 -92 17 -121 30 -28 13 -59 24 -70 24 -10 0
-32 7 -49 16 -16 8 -63 29 -104 46 -41 17 -97 43 -125 58 -28 15 -91 48 -139
73 -80 41 -181 109 -263 177 -17 14 -49 38 -70 55 -86 67 -262 247 -267 275
-9 44 -79 74 -154 64 -65 -8 -73 -14 -73 -65 0 -38 -26 -137 -41 -155 -15 -19
-39 -183 -39 -272 0 -113 16 -216 45 -282 13 -30 27 -68 31 -85 4 -16 15 -42
25 -57 11 -14 19 -31 19 -36 0 -13 52 -80 109 -140 27 -28 39 -48 31 -50 -7
-3 -15 0 -19 4 -10 15 -115 64 -135 64 -11 0 -34 5 -51 11 -18 7 -44 9 -59 5
-23 -6 -27 -11 -22 -31 3 -13 15 -88 27 -167 13 -89 28 -154 39 -173 10 -16
26 -55 35 -87 9 -31 22 -62 30 -68 8 -7 15 -18 15 -25 0 -48 284 -334 333
-335 7 0 23 -9 37 -20 23 -18 24 -20 4 -20 -11 0 -25 5 -31 11 -6 6 -38 13
-72 16 -78 7 -95 -5 -87 -62 6 -46 55 -166 78 -192 9 -10 23 -31 32 -48 23
-41 63 -96 86 -117 10 -10 22 -24 27 -31 12 -20 144 -130 188 -157 22 -13 49
-32 59 -42 11 -10 30 -18 42 -18 12 0 32 -8 45 -18 33 -25 84 -42 130 -42 21
0 40 -4 43 -9 4 -5 -42 -33 -101 -61 -60 -28 -131 -62 -159 -76 -28 -13 -57
-24 -65 -24 -8 0 -39 -10 -69 -21 -30 -12 -91 -27 -135 -34 -44 -8 -105 -21
-135 -30 -32 -10 -110 -19 -191 -22 -121 -5 -141 -3 -195 16 -105 37 -104 38
-104 -84 0 -102 1 -105 23 -105 12 0 40 -11 63 -24 22 -13 53 -26 67 -30 15
-3 43 -18 64 -31 20 -14 48 -28 62 -31 39 -9 85 -27 92 -37 3 -5 26 -13 50
-18 24 -6 51 -16 59 -24 8 -7 44 -21 80 -30 81 -20 150 -45 170 -60 21 -16
104 -55 118 -55 7 0 12 -7 12 -15 0 -13 66 -15 530 -15 461 0 530 2 530 15 0
8 12 18 28 21 15 4 46 17 70 30 23 13 50 24 59 24 9 0 24 6 32 13 18 15 75 33
134 42 21 3 40 12 43 20 3 8 20 17 37 20 18 4 59 20 92 35 33 16 76 33 95 38
19 5 53 21 74 36 21 14 44 26 50 26 6 0 36 18 66 40 30 22 69 47 85 56 17 9
53 33 80 54 28 20 64 44 82 53 17 9 51 36 76 59 206 200 287 280 287 285 0 3
15 22 33 43 17 20 43 52 57 70 14 18 39 50 55 71 86 111 145 198 145 216 0 6
10 24 23 40 13 15 31 45 40 65 10 20 21 39 26 42 4 3 16 27 26 53 10 26 23 55
30 63 7 8 20 38 30 65 10 28 22 55 27 61 5 6 15 36 24 65 9 30 24 70 34 89 10
19 21 60 25 90 4 30 16 82 27 114 11 33 28 109 39 170 10 61 23 131 28 156 6
25 10 120 11 211 0 117 4 170 13 181 6 8 33 29 58 46 25 17 93 81 151 141 70
75 112 111 126 111 21 0 22 4 22 115 l0 115 -55 0 c-46 0 -59 -4 -84 -29 -26
-25 -104 -52 -116 -39 -2 2 24 40 58 85 56 73 71 96 115 167 7 12 17 33 22 49
7 20 16 27 35 27 24 0 25 3 25 60 l0 60 -47 0 c-73 0 -188 -41 -216 -77 -10
-13 -24 -23 -31 -23 -6 0 -29 -9 -50 -19 -34 -18 -156 -58 -246 -81 -19 -5
-45 -12 -57 -15 -16 -4 -41 11 -105 64 -48 41 -118 88 -167 111 -52 26 -85 48
-88 61 -5 18 -17 19 -319 19 -245 0 -314 -3 -314 -12z"/>
</g>
</svg>
